# xmcd
#
# Track frame offsets:
#	150
#	22120
#	40499
#	54593
#	75090
#	92988
#	106450
#	125480
#	151179
#	173148
#	190172
#
# Disc length: 2749 seconds
#
# Revision: 0
# Processed by: cddbd v1.5.2PL0 Copyright (c) Steve Scherf et al.
# Submitted via: audiograbber 1.83.01
#
DISCID=870abb0b
DTITLE=Jann Browne - Arrow
DYEAR=2020
DGENRE=Country
TTITLE0=Burn This Desert Down
TTITLE1=Can't Be
TTITLE2=Hot Mess
TTITLE3=Mrs Murphy
TTITLE4=Kill The Lights
TTITLE5=Personal Life
TTITLE6=Lillie Belle
TTITLE7=Blue Suitcase
TTITLE8=I'll Sing You To Heaven
TTITLE9=Somewhere Close To Love
TTITLE10=Should You Stray
EXTD=
EXTT0=
EXTT1=
EXTT2=
EXTT3=
EXTT4=
EXTT5=
EXTT6=
EXTT7=
EXTT8=
EXTT9=
EXTT10=
PLAYORDER=
